<?xml version="1.0" encoding="UTF-8"?>
<svg version="1.1" xmlns="http://www.w3.org/2000/svg" width="205" height="178">
<path d="M0 0 C67.65 0 135.3 0 205 0 C205 58.74 205 117.48 205 178 C137.35 178 69.7 178 0 178 C0 119.26 0 60.52 0 0 Z " fill="#EC966F" transform="translate(0,0)"/>
<path d="M0 0 C1.1859375 0.00257812 2.371875 0.00515625 3.59375 0.0078125 C4.7796875 0.00523438 5.965625 0.00265625 7.1875 0 C10.09375 0.1328125 10.09375 0.1328125 11.09375 1.1328125 C11.19070372 2.85468055 11.22576648 4.5801135 11.234375 6.3046875 C11.25371094 7.36171875 11.27304688 8.41875 11.29296875 9.5078125 C11.32658513 11.74200897 11.34503366 13.97648968 11.34765625 16.2109375 C11.38040955 22.68901905 11.38040955 22.68901905 14.515625 28.1484375 C15.36640625 28.80328125 16.2171875 29.458125 17.09375 30.1328125 C19.0791561 33.25174431 19.35395848 35.72749896 19.38427734 39.38867188 C19.39703705 40.43655884 19.40979675 41.4844458 19.42294312 42.56408691 C19.42516876 43.69020386 19.42739441 44.8163208 19.4296875 45.9765625 C19.4396727 47.71842834 19.4396727 47.71842834 19.44985962 49.4954834 C19.45998171 51.94993506 19.46467678 54.40441421 19.46435547 56.85888672 C19.46873348 60.61862289 19.50507325 64.3771899 19.54296875 68.13671875 C19.54883591 70.52082931 19.55280598 72.90494546 19.5546875 75.2890625 C19.56905853 76.41517944 19.58342957 77.54129639 19.59823608 78.70153809 C19.59208282 79.74942505 19.58592957 80.79731201 19.57958984 81.87695312 C19.58243988 82.79754517 19.58528992 83.71813721 19.58822632 84.66662598 C18.93484598 87.92534178 17.69170517 89.11868255 15.09375 91.1328125 C11.59765625 91.53125 11.59765625 91.53125 7.65625 91.5078125 C1.96764204 91.55256864 1.96764204 91.55256864 -2.59375 94.8203125 C-2.91085938 95.35527344 -3.22796875 95.89023438 -3.5546875 96.44140625 C-7.99819148 102.00220747 -17.89941916 105.32916165 -24.90625 106.1328125 C-36.73142528 107.1208167 -46.216632 104.6794032 -55.95703125 97.859375 C-59.07594184 95.09673275 -61.04107536 91.82567084 -62.90625 88.1328125 C-63.19757813 88.70128906 -63.48890625 89.26976563 -63.7890625 89.85546875 C-69.19095821 100.03073771 -75.26789733 106.71204699 -86.15625 110.9453125 C-94.59806335 113.46915361 -103.10904966 112.91277304 -111.234375 109.58984375 C-118.25997698 105.75863097 -123.79577477 100.18602719 -127.6953125 93.23046875 C-129.13318794 90.73969742 -130.78293222 88.46237082 -132.46875 86.1328125 C-140.27059971 75.0066964 -142.30287116 64.86164366 -142.28125 51.3203125 C-142.27963867 50.26730957 -142.27802734 49.21430664 -142.27636719 48.12939453 C-142.11602168 37.94116704 -140.66013971 28.19390667 -133.90625 20.1328125 C-130.81393389 18.07126843 -130.29866113 17.90886805 -126.84375 18.0703125 C-123.12066073 18.43224817 -123.12066073 18.43224817 -120.90625 17.1328125 C-118.57330225 17.09039527 -116.23922433 17.09188313 -113.90625 17.1328125 C-112.91625 17.1328125 -111.92625 17.1328125 -110.90625 17.1328125 C-96.98613885 17.3230252 -96.98613885 17.3230252 -93.15625 20.5703125 C-92.41375 21.4159375 -91.67125 22.2615625 -90.90625 23.1328125 C-90.24625 23.7928125 -89.58625 24.4528125 -88.90625 25.1328125 C-88.143125 24.6378125 -87.38 24.1428125 -86.59375 23.6328125 C-82.21667627 21.85230793 -79.04074965 22.05166937 -74.39453125 22.41796875 C-71.80389948 22.37565618 -71.80389948 22.37565618 -70.1484375 20.4453125 C-68.81442002 17.96185857 -68.27169103 15.82670274 -67.71875 13.0703125 C-66.43338313 8.54155876 -66.43338313 8.54155876 -64.25390625 6.8515625 C-59.38830758 4.92459273 -54.09475804 4.48111512 -48.90625 4.1328125 C-48.95265625 4.84566406 -48.9990625 5.55851562 -49.046875 6.29296875 C-49.29643999 12.91535406 -48.76272296 16.7096474 -44.90625 22.1328125 C-44.2771875 22.07480469 -43.648125 22.01679687 -43 21.95703125 C-36.25636101 21.60156835 -31.99559704 22.6028549 -26.90625 27.1328125 C-22.97694526 31.39865491 -20.22677292 36.05177536 -17.9609375 41.37109375 C-16.63845727 43.58012555 -15.02286164 44.7056366 -12.90625 46.1328125 C-12.90367187 45.2871875 -12.90109375 44.4415625 -12.8984375 43.5703125 C-12.65716895 36.4931017 -11.98151338 31.91046051 -7.37890625 26.42578125 C-5.90625 25.1328125 -5.90625 25.1328125 -3.90625 25.1328125 C-3.91148682 24.41101807 -3.91672363 23.68922363 -3.92211914 22.94555664 C-3.94282358 19.69548401 -3.95588918 16.44542522 -3.96875 13.1953125 C-3.97712891 12.05900391 -3.98550781 10.92269531 -3.99414062 9.75195312 C-3.99736328 8.67236328 -4.00058594 7.59277344 -4.00390625 6.48046875 C-4.00914307 5.48023682 -4.01437988 4.48000488 -4.01977539 3.44946289 C-3.84985836 -0.01794072 -3.52193477 0.16094863 0 0 Z " fill="#202148" transform="translate(159.90625,10.8671875)"/>
<path d="M0 0 C0.29777344 1.03060547 0.29777344 1.03060547 0.6015625 2.08203125 C1.75965385 5.17174826 2.89809613 7.44351772 5 10 C8.26322379 11.23287528 11.35766094 11.65855449 14.80859375 12.15625 C22.30044657 13.40762042 29.25747446 17.1057625 36.13745117 20.19970703 C38.16370892 21.10122254 38.16370892 21.10122254 41 22 C42.98227386 20.69028072 42.98227386 20.69028072 45 18.8125 C50.85086453 14.04017983 57.11736171 11.26322971 64.6875 10.75 C65.450625 10.8325 66.21375 10.915 67 11 C67.47357886 14.15719243 67.41726456 16.29661117 65.76953125 19.07421875 C63.37514981 22.27263938 60.868767 25.21738216 58 28 C58.48210937 28.45890625 58.96421875 28.9178125 59.4609375 29.390625 C60.09257812 30.00421875 60.72421875 30.6178125 61.375 31.25 C62.00148438 31.85328125 62.62796875 32.4565625 63.2734375 33.078125 C66.7589749 36.95795396 67.23500809 39.82982212 67 45 C58.32313239 44.58015157 51.1698036 42.07542228 44.6875 36.125 C42.26837391 33.7762909 42.26837391 33.7762909 39.6875 33.9375 C35.73280025 35.50098595 31.85081606 37.19624084 28 39 C28.09539062 39.62648437 28.19078125 40.25296875 28.2890625 40.8984375 C28.39992188 41.71570313 28.51078125 42.53296875 28.625 43.375 C28.74101562 44.18710938 28.85703125 44.99921875 28.9765625 45.8359375 C28.98816406 46.90714844 28.98816406 46.90714844 29 48 C27 50 27 50 25.08203125 50.1171875 C21.00485527 49.6821016 17.98058551 49.21883006 14.5625 46.875 C10.85479185 44.52706636 8.20452508 44.98878021 3.9765625 45.63671875 C0.27022761 46.08906671 -3.39837113 46.09235518 -7.125 46.0625 C-8.42695312 46.05347656 -9.72890625 46.04445312 -11.0703125 46.03515625 C-12.52050781 46.01775391 -12.52050781 46.01775391 -14 46 C-14 49.3 -14 52.6 -14 56 C-18.02236512 54.99440872 -19.22411778 54.23677176 -22.1875 51.5625 C-22.88230469 50.94503906 -23.57710937 50.32757813 -24.29296875 49.69140625 C-26 48 -26 48 -27 46 C-29.44446355 45.4798374 -31.84524065 45.06091848 -34.3125 44.6875 C-44.06435473 43.03580894 -55.07918835 40.48652445 -61.375 32.1875 C-62.36322755 28.72870359 -61.95454335 26.46021964 -61 23 C-55.17178919 14.90526277 -44.67476249 12.25013468 -35.24609375 10.3125 C-32.64112692 9.95006983 -30.06451065 9.8653146 -27.4375 9.75 C-22.30604696 9.36406899 -19.7582793 7.78030509 -15.90234375 4.5 C-11.1851995 0.78052692 -5.94242578 -0.44568193 0 0 Z " fill="#E9946E" transform="translate(106,114)"/>
<path d="M0 0 C7.37529891 7.89652145 9.79818403 16.04766414 9.5234375 26.75 C8.95817195 35.13677686 4.65781613 41.69820411 -1.375 47.3125 C-10.19745904 54.44744171 -18.73399549 55.69056043 -29.875 54.75 C-33.20365988 53.86337066 -35.93953809 52.53583234 -38.875 50.75 C-39.92300781 50.13125 -39.92300781 50.13125 -40.9921875 49.5 C-48.38948942 44.58707495 -52.49258924 37.18502189 -54.875 28.75 C-56.17852919 19.09887046 -54.28648747 11.79814838 -48.875 3.75 C-43.44792053 -3.07293325 -37.54235493 -7.27136106 -29 -9.0625 C-18.02366642 -9.92002606 -8.11115694 -7.69962524 0 0 Z " fill="#E9936D" transform="translate(85.875,65.25)"/>
<path d="M0 0 C0.99 0 1.98 0 3 0 C16.92011115 0.1902127 16.92011115 0.1902127 20.75 3.4375 C21.4925 4.283125 22.235 5.12875 23 6 C23.66 6.66 24.32 7.32 25 8 C25.515625 7.67 26.03125 7.34 26.5625 7 C29.84447094 5.65355038 32.48432783 5.74431475 36 6 C38.36841312 7.57894208 40.06745228 8.9754262 42 11 C41.60167969 11.6290625 41.20335938 12.258125 40.79296875 12.90625 C37.5403507 18.16108792 34.95448384 23.13654848 33 29 C28.545 28.01 28.545 28.01 24 27 C24 27.33 24 27.66 24 28 C22.2984375 28.14695312 22.2984375 28.14695312 20.5625 28.296875 C8.9803067 29.39896237 1.06317722 30.88031646 -7.16796875 39.6796875 C-12.77569875 46.78201505 -14.81271898 53.85480216 -14.41796875 62.859375 C-13.2574611 71.57945118 -9.04246922 80.03661919 -2.046875 85.53515625 C6.55341752 91.16473704 15.46172867 92.36746081 25.5625 90.53515625 C35.25239741 87.69211343 41.05353929 81.55789051 46 73 C46.33 72.34 46.66 71.68 47 71 C47.99 71 48.98 71 50 71 C48.20661892 78.77131803 43.04571123 84.85463938 36.625 89.375 C27.57623337 94.86834905 18.61267501 96.55997439 8.140625 94.4140625 C-1.49165786 91.44819009 -8.89088748 84.83447197 -13.7890625 76.09765625 C-15.22693794 73.60688492 -16.87668222 71.32955832 -18.5625 69 C-26.36434971 57.8738839 -28.39662116 47.72883116 -28.375 34.1875 C-28.37338867 33.13449707 -28.37177734 32.08149414 -28.37011719 30.99658203 C-28.20977168 20.80835454 -26.75388971 11.06109417 -20 3 C-16.90768389 0.93845593 -16.39241113 0.77605555 -12.9375 0.9375 C-8.46138982 1.00854937 -4.63075583 -0.08124133 0 0 Z " fill="#272549" transform="translate(46,28)"/>
<path d="M0 0 C0.29777344 1.03060547 0.29777344 1.03060547 0.6015625 2.08203125 C1.75965385 5.17174826 2.89809613 7.44351772 5 10 C8.26322379 11.23287528 11.35766094 11.65855449 14.80859375 12.15625 C22.30044657 13.40762042 29.25747446 17.1057625 36.13745117 20.19970703 C38.16370892 21.10122254 38.16370892 21.10122254 41 22 C42.98227386 20.69028072 42.98227386 20.69028072 45 18.8125 C50.85086453 14.04017983 57.11736171 11.26322971 64.6875 10.75 C65.450625 10.8325 66.21375 10.915 67 11 C67.47357886 14.15719243 67.41726456 16.29661117 65.76953125 19.07421875 C63.37514981 22.27263938 60.868767 25.21738216 58 28 C58.48210937 28.45890625 58.96421875 28.9178125 59.4609375 29.390625 C60.09257812 30.00421875 60.72421875 30.6178125 61.375 31.25 C62.00148438 31.85328125 62.62796875 32.4565625 63.2734375 33.078125 C66.7589749 36.95795396 67.23500809 39.82982212 67 45 C58.32313239 44.58015157 51.1698036 42.07542228 44.6875 36.125 C42.26837391 33.7762909 42.26837391 33.7762909 39.6875 33.9375 C35.73280025 35.50098595 31.85081606 37.19624084 28 39 C28.09539062 39.62648437 28.19078125 40.25296875 28.2890625 40.8984375 C28.39992188 41.71570313 28.51078125 42.53296875 28.625 43.375 C28.74101562 44.18710938 28.85703125 44.99921875 28.9765625 45.8359375 C28.98816406 46.90714844 28.98816406 46.90714844 29 48 C27 50 27 50 25.08203125 50.1171875 C21.00485527 49.6821016 17.98058551 49.21883006 14.5625 46.875 C10.85479185 44.52706636 8.20452508 44.98878021 3.9765625 45.63671875 C0.27022761 46.08906671 -3.39837113 46.09235518 -7.125 46.0625 C-8.42695312 46.05347656 -9.72890625 46.04445312 -11.0703125 46.03515625 C-12.52050781 46.01775391 -12.52050781 46.01775391 -14 46 C-14 49.3 -14 52.6 -14 56 C-18.02236512 54.99440872 -19.22411778 54.23677176 -22.1875 51.5625 C-22.88230469 50.94503906 -23.57710937 50.32757813 -24.29296875 49.69140625 C-26 48 -26 48 -27 46 C-29.44446355 45.4798374 -31.84524065 45.06091848 -34.3125 44.6875 C-44.06435473 43.03580894 -55.07918835 40.48652445 -61.375 32.1875 C-62.36322755 28.72870359 -61.95454335 26.46021964 -61 23 C-55.17178919 14.90526277 -44.67476249 12.25013468 -35.24609375 10.3125 C-32.64112692 9.95006983 -30.06451065 9.8653146 -27.4375 9.75 C-22.30604696 9.36406899 -19.7582793 7.78030509 -15.90234375 4.5 C-11.1851995 0.78052692 -5.94242578 -0.44568193 0 0 Z M-43.25 15.25 C-44.27685913 15.58378662 -44.27685913 15.58378662 -45.32446289 15.92431641 C-50.37797127 17.64169837 -54.26154868 19.17036694 -58 23 C-59.40814405 26.43808422 -59.40814405 26.43808422 -59 30 C-56.17541694 35.06071131 -51.30196048 37.94420667 -45.87353516 39.67993164 C-43.61185485 40.24248283 -41.34776112 40.73044778 -39.0625 41.1875 C-38.30259766 41.35185547 -37.54269531 41.51621094 -36.75976562 41.68554688 C-12.31966067 46.84071846 15.47127645 44.78522582 37.27197266 31.62890625 C38.12734619 30.82259766 38.12734619 30.82259766 39 30 C39.41202353 26.17943918 39.41202353 26.17943918 37.72192383 24.37426758 C31.96222387 19.77745047 24.78462623 17.81419172 17.8125 15.8125 C16.93658203 15.55275391 16.06066406 15.29300781 15.15820312 15.02539062 C9.01397728 13.22264961 3.43694601 11.87421121 -3.0078125 11.8671875 C-4.73644531 11.86525391 -4.73644531 11.86525391 -6.5 11.86328125 C-8.294375 11.86908203 -8.294375 11.86908203 -10.125 11.875 C-11.29804687 11.87113281 -12.47109375 11.86726563 -13.6796875 11.86328125 C-23.79578085 11.87452135 -33.57480253 12.07466253 -43.25 15.25 Z " fill="#1A1D47" transform="translate(106,114)"/>
<path d="M0 0 C0.33 0 0.66 0 1 0 C4.25468343 14.46429791 5.38529352 28.41412936 5.3125 43.1875 C5.30968018 43.98466431 5.30686035 44.78182861 5.30395508 45.60314941 C5.29144045 47.89580646 5.26826638 50.18797795 5.23828125 52.48046875 C5.23073318 53.16604355 5.22318512 53.85161835 5.21540833 54.55796814 C5.14468168 58.15002207 4.83554374 61.50349966 4 65 C1.671875 64.8046875 1.671875 64.8046875 -1 64 C-2.546875 61.8203125 -2.546875 61.8203125 -3.75 59.125 C-4.15734375 58.24070313 -4.5646875 57.35640625 -4.984375 56.4453125 C-5.72675614 54.65788715 -6.38795269 52.83614194 -7 51 C-7.66 50.67 -8.32 50.34 -9 50 C-8.73445313 50.66386719 -8.46890625 51.32773438 -8.1953125 52.01171875 C-6.46354167 56.34114583 -4.73177083 60.67057292 -3 65 C-8.95140066 64.7354933 -13.50603842 64.27996341 -18 60 C-20.66251198 54.78591404 -21.36897266 49.78057171 -21 44 C-21.99 44 -22.98 44 -24 44 C-23.01 48.95 -22.02 53.9 -21 59 C-25.78341353 55.2996235 -29.75610875 52.17503156 -31 46 C-32.17817889 34.7483916 -30.041371 26.67999503 -23.1875 17.75 C-19.77329217 13.68882221 -16.15526482 10.28958465 -12 7 C-11.34 7.33 -10.68 7.66 -10 8 C-10.51949219 8.83660156 -11.03898437 9.67320313 -11.57421875 10.53515625 C-16.72705399 19.05810399 -20.21763521 27.4489978 -23 37 C-22.01 37 -21.02 37 -20 37 C-19.91234375 35.845 -19.8246875 34.69 -19.734375 33.5 C-19.14304426 28.80243552 -17.45604776 25.14640365 -15.25 21 C-14.89164063 20.30519531 -14.53328125 19.61039063 -14.1640625 18.89453125 C-11.66803383 14.10897987 -8.99534317 9.49301475 -6 5 C-4.73379324 8.79862028 -5.52762696 10.057765 -6.8125 13.8125 C-9.80609128 23.66338342 -10.31641062 33.77116866 -11 44 C-10.01 44 -9.02 44 -8 44 C-8.04640625 43.14921875 -8.0928125 42.2984375 -8.140625 41.421875 C-8.37375786 33.5952719 -7.76841817 26.31505329 -6.25 18.625 C-6.09305664 17.80612305 -5.93611328 16.98724609 -5.77441406 16.14355469 C-4.56244735 10.38613123 -2.57818923 5.28133365 0 0 Z " fill="#E8956F" transform="translate(129,49)"/>
<path d="M0 0 C6.36890772 2.55012603 9.59978828 6.7373104 13.06640625 12.5 C14.22265807 15.59623917 14.22130755 16.92956414 13 20 C10.7421875 22.0703125 10.7421875 22.0703125 7.875 24.125 C0.85078625 29.57812823 -3.15003449 36.09743922 -7 44 C-9 42 -9 42 -10.5625 38.4375 C-12.36570355 34.60222477 -14.66799434 32.31735988 -17.8125 29.5 C-21.8472924 25.6311119 -21.8472924 25.6311119 -22.5 22.93359375 C-21.85410003 16.05745036 -17.72990005 8.86504005 -13 4 C-8.88512853 0.93145282 -5.18474319 -0.95229977 0 0 Z " fill="#E9956E" transform="translate(104,34)"/>
<path d="M0 0 C0.99 0 1.98 0 3 0 C3.25394531 0.55429688 3.50789063 1.10859375 3.76953125 1.6796875 C4.11371094 2.40414062 4.45789062 3.12859375 4.8125 3.875 C5.31716797 4.95394531 5.31716797 4.95394531 5.83203125 6.0546875 C6.99467097 8.30542806 6.99467097 8.30542806 10 10 C13.56738787 9.70805808 15.27091751 8.08392338 17.6875 5.5625 C18.28949219 4.94503906 18.89148438 4.32757813 19.51171875 3.69140625 C21.07826107 2.05606447 21.07826107 2.05606447 22 0 C22.99 0 23.98 0 25 0 C25.05423638 1.91635217 25.09289963 3.83314925 25.125 5.75 C25.14820313 6.81734375 25.17140625 7.8846875 25.1953125 8.984375 C25.00487687 11.92470106 24.52670104 13.52361878 23 16 C24.216875 16.37125 25.43375 16.7425 26.6875 17.125 C31.27780473 18.83719182 33.2966692 20.9450038 36 25 C36 25.99 36 26.98 36 28 C31.05 28 26.1 28 21 28 C21.33 32.95 21.66 37.9 22 43 C17.88273814 41.97068454 17.35131762 41.69770826 14.875 38.625 C14.12863281 37.71621094 14.12863281 37.71621094 13.3671875 36.7890625 C12.18228762 35.23853637 11.08246429 33.62369643 10 32 C9.67 32.66 9.34 33.32 9 34 C3.25 34.125 3.25 34.125 1 33 C1 32.01 1 31.02 1 30 C-0.11375 30.66 -1.2275 31.32 -2.375 32 C-5.75 34 -5.75 34 -8 34 C-7.63015313 27.83588545 -6.29761357 25.19994054 -2 21 C0.8125 19.625 0.8125 19.625 3 19 C2.71125 18.5153125 2.4225 18.030625 2.125 17.53125 C-0.73473041 12.36784787 -1.49904758 8.88876144 -1 3 C-0.67 2.01 -0.34 1.02 0 0 Z " fill="#2D284A" transform="translate(47,64)"/>
<path d="M0 0 C8.91 0 17.82 0 27 0 C27.06883767 5.64213929 27.12858039 11.2828243 27.16479492 16.92504883 C27.1798898 18.84469538 27.20036773 20.7643074 27.22631836 22.68383789 C27.26267109 25.44165564 27.27971912 28.1990178 27.29296875 30.95703125 C27.30845261 31.81649857 27.32393646 32.67596588 27.33988953 33.56147766 C27.34011612 34.36208115 27.34034271 35.16268463 27.34057617 35.98754883 C27.34723801 36.6914827 27.35389984 37.39541656 27.36076355 38.12068176 C26.88372405 40.60571395 25.99845191 41.48748233 24 43 C20.86328125 43.29296875 20.86328125 43.29296875 17.3125 43.1875 C15.54326172 43.14689453 15.54326172 43.14689453 13.73828125 43.10546875 C12.83464844 43.07066406 11.93101562 43.03585938 11 43 C11.33 41.824375 11.66 40.64875 12 39.4375 C14.40293448 29.5664526 12.08384597 21.25663015 7.0625 12.625 C5.47026389 10.01797875 4.05174073 8.04814378 1.80859375 5.9609375 C0 4 0 4 0 0 Z " fill="#E39370" transform="translate(150,57)"/>
<path d="M0 0 C1.4540625 0.0309375 1.4540625 0.0309375 2.9375 0.0625 C4.90143175 4.34744199 6.22451773 8.25720069 7.26171875 12.875 C8.36334732 16.4409653 10.200202 19.61275683 12.01171875 22.86328125 C12.9375 25.0625 12.9375 25.0625 11.9375 28.0625 C10.34375 29.59765625 10.34375 29.59765625 8.4375 31.125 C5.75643599 33.23971767 5.75643599 33.23971767 3.9375 36.0625 C3.2775 36.0625 2.6175 36.0625 1.9375 36.0625 C-1.66574126 27.2045319 -2.21111391 18.41936703 -0.0625 9.0625 C-0.7225 9.0625 -1.3825 9.0625 -2.0625 9.0625 C-2.52918695 23.69173772 -2.52918695 23.69173772 0.46484375 37.91015625 C1.08758296 40.74593565 0.19623203 42.42822329 -1.22265625 44.89453125 C-3.24604783 50.11770487 -2.85464955 56.4935413 -3.0625 62.0625 C-11.25433702 51.81686909 -13.02215534 37.79292793 -12.0625 25.0625 C-9.23886994 0.18854837 -9.23886994 0.18854837 0 0 Z " fill="#E48F6A" transform="translate(32.0625,31.9375)"/>
<path d="M0 0 C0.47357886 3.15719243 0.41726456 5.29661117 -1.23046875 8.07421875 C-3.62485019 11.27263938 -6.131233 14.21738216 -9 17 C-8.51789063 17.45890625 -8.03578125 17.9178125 -7.5390625 18.390625 C-6.90742188 19.00421875 -6.27578125 19.6178125 -5.625 20.25 C-4.99851563 20.85328125 -4.37203125 21.4565625 -3.7265625 22.078125 C-0.2410251 25.95795396 0.23500809 28.82982212 0 34 C-8.67686761 33.58015157 -15.8301964 31.07542228 -22.3125 25.125 C-24.76506776 22.70697121 -24.76506776 22.70697121 -27.5625 23.125 C-28.366875 23.41375 -29.17125 23.7025 -30 24 C-31.66666667 24.33333333 -33.33333333 24.66666667 -35 25 C-34.195625 24.278125 -33.39125 23.55625 -32.5625 22.8125 C-29.97707928 19.97484311 -29.31957187 18.72833853 -29 15 C-32.45680903 12.23455278 -36.14341602 10.15078722 -40 8 C-40 7.34 -40 6.68 -40 6 C-38.603522 6.45636536 -37.2078492 6.91519488 -35.8125 7.375 C-35.03519531 7.63023437 -34.25789062 7.88546875 -33.45703125 8.1484375 C-31 9 -31 9 -28.45703125 10.296875 C-27.64621094 10.52890625 -26.83539063 10.7609375 -26 11 C-23.813266 9.84254984 -23.813266 9.84254984 -21.875 7.875 C-15.72357192 2.66836555 -8.24334683 -0.89117263 0 0 Z " fill="#2B274A" transform="translate(173,125)"/>
<path d="M0 0 C10.53751912 9.73957781 18.22126226 25.84736303 19.21875 40.1328125 C19.40207218 46.71713406 19.36323587 53.15527548 16 59 C11.91849511 62.71870445 9.37104451 63.17229292 4 63 C4.01571045 61.50557373 4.01571045 61.50557373 4.03173828 59.98095703 C4.65936419 29.75467436 4.65936419 29.75467436 0 0 Z " fill="#E89670" transform="translate(132,50)"/>
<path d="M0 0 C0.66 0 1.32 0 2 0 C1.93039063 1.06927734 1.93039063 1.06927734 1.859375 2.16015625 C1.60981001 8.78254156 2.14352704 12.5768349 6 18 C6.6290625 17.94199219 7.258125 17.88398437 7.90625 17.82421875 C14.63762063 17.46940253 18.92808873 18.46025929 24 23 C27.05754185 26.42391397 29.54172253 29.6251676 31 34 C29.3125 34.8125 29.3125 34.8125 27 35 C24.5 32.5 24.5 32.5 22 30 C19.90938769 29.68740419 19.90938769 29.68740419 18 31 C17.154375 31.845625 16.30875 32.69125 15.4375 33.5625 C14.633125 34.366875 13.82875 35.17125 13 36 C12.01 36 11.02 36 10 36 C9.67 36.66 9.34 37.32 9 38 C8.75765625 37.33613281 8.5153125 36.67226563 8.265625 35.98828125 C5.91657228 29.79943082 3.96553176 25.00000979 -1.6875 21.1875 C-5.35318856 19.87338523 -8.10509594 19.79301015 -11.94921875 19.9921875 C-14 20 -14 20 -17 19 C-16.71125 18.154375 -16.4225 17.30875 -16.125 16.4375 C-14.90685014 13.00191305 -14.90685014 13.00191305 -14.375 9.3125 C-13 6 -13 6 -11.234375 4.890625 C-7.58889853 3.45943794 -4.97677031 3 -1 3 C-0.67 2.01 -0.34 1.02 0 0 Z " fill="#1F2048" transform="translate(109,15)"/>
<path d="M0 0 C2.97 0 5.94 0 9 0 C9.00386719 1.42892578 9.00386719 1.42892578 9.0078125 2.88671875 C8.90774503 9.72893398 8.90774503 9.72893398 11.33203125 15.8671875 C12.83511389 16.98627093 14.41638333 17.99812007 16 19 C18.71845461 23.5719464 18 26.14253972 18 32 C9.09 32 0.18 32 -9 32 C-9 22.91727227 -8.76528215 21.34455633 -3.375 15.125 C-2 14 -2 14 0 14 C0 9.38 0 4.76 0 0 Z " fill="#EA9772" transform="translate(159,23)"/>
<path d="M0 0 C0.33 0 0.66 0 1 0 C2.47729061 10.32784415 3.19373974 20.49919545 3.1875 30.9375 C3.18814453 31.96609131 3.18878906 32.99468262 3.18945312 34.05444336 C3.14207483 40.7482428 2.71232297 47.34482137 2 54 C8.99006462 52.7265028 8.99006462 52.7265028 14 48 C18.16126173 38.22103493 16.57955857 26.71794221 13 17 C11.72768836 14.03505947 10.3994064 11.11618366 8.98828125 8.21484375 C8 6 8 6 8 4 C11.28112535 5.04625906 11.99347921 5.98795105 13.66796875 9.08203125 C14.18823991 10.3198265 14.69436298 11.56364651 15.1875 12.8125 C15.44724609 13.42931641 15.70699219 14.04613281 15.97460938 14.68164062 C18.69519126 21.29680226 19.15932795 26.95132702 19.125 34 C19.13080078 35.19109375 19.13080078 35.19109375 19.13671875 36.40625 C19.13005759 40.4029478 18.99085908 44.09947535 18 48 C19.98 46.35 21.96 44.7 24 43 C24.33 43.66 24.66 44.32 25 45 C20.03251616 51.96630471 11.54641276 56.08359829 3.1796875 57.75 C-9.54685914 59.2096756 -19.60356163 56.97966638 -30.1171875 49.59375 C-32.78275436 47.33741955 -34.32843807 45.05241744 -36 42 C-35.34 40.68 -34.68 39.36 -34 38 C-33.38125 39.3921875 -33.38125 39.3921875 -32.75 40.8125 C-31.06558214 43.88054681 -29.91545917 45.19040465 -27 47 C-27.33 45.96875 -27.66 44.9375 -28 43.875 C-28.9715192 40.51573291 -29.17116771 37.50893798 -29 34 C-28.01 34 -27.02 34 -26 34 C-25.74476562 35.44632813 -25.74476562 35.44632813 -25.484375 36.921875 C-25.24203125 38.18515625 -24.9996875 39.4484375 -24.75 40.75 C-24.51796875 42.00296875 -24.2859375 43.2559375 -24.046875 44.546875 C-22.92212777 48.25686212 -22.10041219 49.72927558 -19 52 C-16.43843328 52.89561116 -16.43843328 52.89561116 -13.75 53.25 C-12.85796875 53.39953125 -11.9659375 53.5490625 -11.046875 53.703125 C-10.37140625 53.80109375 -9.6959375 53.8990625 -9 54 C-9.41572266 53.23816406 -9.41572266 53.23816406 -9.83984375 52.4609375 C-12.0334683 48.2922702 -13.52413155 44.75868447 -14 40 C-11 41 -11 41 -9.90234375 43.1796875 C-9.42474609 44.51386719 -9.42474609 44.51386719 -8.9375 45.875 C-7.81795647 48.95936491 -6.83737581 51.24393629 -5 54 C-2.94074861 54.72382467 -2.94074861 54.72382467 -1 55 C-0.97510261 49.34407871 -0.95704727 43.68819 -0.94506836 38.03222656 C-0.94006938 36.11197351 -0.933268 34.1917242 -0.92456055 32.27148438 C-0.91229916 29.49608428 -0.90672719 26.72073493 -0.90234375 23.9453125 C-0.89718246 23.1001004 -0.89202118 22.25488831 -0.88670349 21.38406372 C-0.88616483 15.53542295 -1.31955993 9.80797145 -2 4 C-1.34 4 -0.68 4 0 4 C0 2.68 0 1.36 0 0 Z " fill="#252449" transform="translate(134,59)"/>
<path d="M0 0 C9.35376717 4.3027329 15.7008231 12.52798126 19.875 21.75 C22.1512632 28.56515929 22.36204549 36.90100411 19.375 43.5 C17.20665911 47.18149965 14.43279023 49.50342529 11 52 C11.15855469 51.18660156 11.31710938 50.37320313 11.48046875 49.53515625 C14.00625508 32.34841467 10.56141785 18.43422764 1.609375 3.703125 C0 1 0 1 0 0 Z " fill="#DF916F" transform="translate(140,56)"/>
<path d="M0 0 C-1.11541355 5.20526325 -3.21407433 7.44429586 -7.24609375 10.60546875 C-8.96208753 11.96985579 -10.47933804 13.42353393 -12 15 C-11.13375 15.185625 -10.2675 15.37125 -9.375 15.5625 C-5.09133563 17.38702371 -2.38442587 19.99213524 0 24 C0 25.32 0 26.64 0 28 C-10.73225551 26.29646738 -17.37759734 21.49025982 -24 13 C-17.44530784 5.68656534 -10.13930003 0 0 0 Z " fill="#E59570" transform="translate(170,128)"/>
<path d="M0 0 C1.11511089 3.34533267 0.93410412 3.88053566 -0.3125 7 C-0.57675781 7.680625 -0.84101562 8.36125 -1.11328125 9.0625 C-2 11 -2 11 -4 14 C-2.1746875 13.9071875 -2.1746875 13.9071875 -0.3125 13.8125 C3.56519349 13.80561244 5.91876927 14.49650003 9 17 C9 17.66 9 18.32 9 19 C5.37 19.66 1.74 20.32 -2 21 C-2.66 24.96 -3.32 28.92 -4 33 C-8.21174952 28.78825048 -8.89620173 27.70890473 -9 22 C-7.5625 20.0625 -7.5625 20.0625 -6 19 C-9.98175544 21.10148204 -12.35039045 23.36905358 -15 27 C-15.99 26.67 -16.98 26.34 -18 26 C-16.67212214 22.01636642 -14.99014805 19.89369166 -12 17 C-11.67 16.01 -11.34 15.02 -11 14 C-11.7425 13.773125 -12.485 13.54625 -13.25 13.3125 C-16.58966387 11.71856952 -18.0598925 10.1340198 -20 7 C-19.75 4.6875 -19.75 4.6875 -19 3 C-17.9171875 3.9590625 -17.9171875 3.9590625 -16.8125 4.9375 C-13.89605523 7.07622616 -12.56589443 7.8301955 -9 8 C-6.44328878 6.38605009 -6.44328878 6.38605009 -4.1875 4.0625 C-3.00220703 2.93521484 -3.00220703 2.93521484 -1.79296875 1.78515625 C-1.20128906 1.19605469 -0.60960938 0.60695313 0 0 Z " fill="#E28F6B" transform="translate(69,69)"/>
<path d="M0 0 C0.19851562 0.68707031 0.39703125 1.37414062 0.6015625 2.08203125 C1.76764874 5.19307814 2.86470044 7.43764052 5 10 C8.51702473 11.36170871 11.80056604 11.93574316 15.52734375 12.484375 C19.70656508 13.1049118 23.12369999 14.371954 27 16 C27 16.99 27 17.98 27 19 C18.79568733 17.27277628 18.79568733 17.27277628 15.1171875 16.01171875 C1.53387287 11.5963387 -12.85266944 12.15925185 -27 12 C-25.59909221 9.19818443 -23.87544374 9.12535352 -21 8 C-19.49614239 7.03753113 -18.0162787 6.03656235 -16.5625 5 C-11.06126127 1.26571543 -6.7189954 -0.31995216 0 0 Z " fill="#29264A" transform="translate(106,114)"/>
<path d="M0 0 C1.76953125 1.52734375 1.76953125 1.52734375 3 3 C2.60167969 3.6290625 2.20335938 4.258125 1.79296875 4.90625 C-1.4596493 10.16108792 -4.04551616 15.13654848 -6 21 C-6.969375 20.690625 -7.93875 20.38125 -8.9375 20.0625 C-13.23664491 18.82032903 -17.55342634 18.38315147 -22 18 C-20.97248845 11.14589357 -17.24575935 6.04613629 -12.1875 1.4375 C-8.13409207 -0.3905075 -4.38603448 -0.927333 0 0 Z " fill="#E7926C" transform="translate(85,36)"/>
<path d="M0 0 C0.66 0 1.32 0 2 0 C2.15855469 0.60328125 2.31710938 1.2065625 2.48046875 1.828125 C3.99763455 7.02504653 5.19424094 10.04260981 10 13 C10.66 13.33 11.32 13.66 12 14 C11.63934357 17.12568906 10.44331752 18.81321032 8.4375 21.125 C5.78443825 23.62604873 5.78443825 23.62604873 6 26 C6.66 26 7.32 26 8 26 C9.59878075 24.25425612 11.01415879 22.40118663 12.46484375 20.53125 C14 19 14 19 17 19 C16.67 19.99 16.34 20.98 16 22 C15.34 22 14.68 22 14 22 C14.66 24.64 15.32 27.28 16 30 C15.01 30 14.02 30 13 30 C12.34 29.01 11.68 28.02 11 27 C10.67 27.66 10.34 28.32 10 29 C4.25 29.125 4.25 29.125 2 28 C2 27.01 2 26.02 2 25 C0.88625 25.66 -0.2275 26.32 -1.375 27 C-4.75 29 -4.75 29 -7 29 C-6.63015313 22.83588545 -5.29761357 20.19994054 -1 16 C1.8125 14.625 1.8125 14.625 4 14 C3.71125 13.49210937 3.4225 12.98421875 3.125 12.4609375 C0.78485506 8.12191875 -0.50606482 5.06064817 0 0 Z " fill="#272449" transform="translate(46,69)"/>
<path d="M0 0 C1.1859375 0.00257812 2.371875 0.00515625 3.59375 0.0078125 C4.7796875 0.00523438 5.965625 0.00265625 7.1875 0 C10.09375 0.1328125 10.09375 0.1328125 11.09375 1.1328125 C11.21498045 2.88915277 11.27338029 4.64991541 11.3046875 6.41015625 C11.33304688 7.48072266 11.36140625 8.55128906 11.390625 9.65429688 C11.44261526 11.92757094 11.4869142 14.20103421 11.5234375 16.47460938 C11.554375 17.54646484 11.5853125 18.61832031 11.6171875 19.72265625 C11.63700684 20.71128662 11.65682617 21.69991699 11.67724609 22.71850586 C11.81469238 23.51522705 11.95213867 24.31194824 12.09375 25.1328125 C13.08375 25.7928125 14.07375 26.4528125 15.09375 27.1328125 C15.09375 28.1228125 15.09375 29.1128125 15.09375 30.1328125 C12.60013429 28.92899802 10.41231917 27.67852528 8.09375 26.1328125 C7.80078125 22.875 7.80078125 22.875 7.90625 19.0078125 C7.93332031 17.72648437 7.96039063 16.44515625 7.98828125 15.125 C8.02308594 14.13757812 8.05789062 13.15015625 8.09375 12.1328125 C5.12375 12.1328125 2.15375 12.1328125 -0.90625 12.1328125 C-0.90625 11.4728125 -0.90625 10.8128125 -0.90625 10.1328125 C-1.56625 9.8028125 -2.22625 9.4728125 -2.90625 9.1328125 C-2.90625 14.0828125 -2.90625 19.0328125 -2.90625 24.1328125 C-3.23625 24.1328125 -3.56625 24.1328125 -3.90625 24.1328125 C-3.93512236 20.32032824 -3.95300492 16.5078718 -3.96875 12.6953125 C-3.97712891 11.60669922 -3.98550781 10.51808594 -3.99414062 9.39648438 C-3.99736328 8.36201172 -4.00058594 7.32753906 -4.00390625 6.26171875 C-4.00914307 5.30338135 -4.01437988 4.34504395 -4.01977539 3.35766602 C-3.84635741 -0.04095356 -3.45545294 0.15791048 0 0 Z " fill="#3C314E" transform="translate(159.90625,10.8671875)"/>
<path d="M0 0 C4.19858555 0.66795679 5.29333585 3.0683606 7.75 6.4375 C7.47027344 6.97117187 7.19054687 7.50484375 6.90234375 8.0546875 C5.67825494 10.49807091 5.67825494 10.49807091 4.62890625 13.3828125 C1.12632727 21.84304778 1.12632727 21.84304778 -3.08984375 23.6640625 C-5.84545419 24.13929004 -8.45584924 24.41761281 -11.25 24.4375 C-10.29353569 21.54103733 -9.33489932 18.64532423 -8.375 15.75 C-8.10558594 14.93337891 -7.83617187 14.11675781 -7.55859375 13.27539062 C-3.36884618 0.65505342 -3.36884618 0.65505342 0 0 Z " fill="#E8926C" transform="translate(60.25,31.5625)"/>
<path d="M0 0 C0.99 0 1.98 0 3 0 C3.33 1.32 3.66 2.64 4 4 C4.99 3.67 5.98 3.34 7 3 C17.27947996 2.0156228 17.27947996 2.0156228 21.6875 5 C22.450625 5.66 23.21375 6.32 24 7 C23.01582803 9.85409871 22.00969441 10.99279134 19.5625 12.8125 C15.85445576 14.04851475 14.16234541 13.93304052 10.375 13.4375 C6.03676835 12.75085417 6.03676835 12.75085417 2.3125 14.9375 C1.6628125 15.9584375 1.6628125 15.9584375 1 17 C1 13 1 13 2 11 C2.28143104 6.77853434 1.80098121 3.82708507 0 0 Z " fill="#2D284A" transform="translate(75,135)"/>
<path d="M0 0 C0.66 0.99 1.32 1.98 2 3 C1.3915625 3.01417969 0.783125 3.02835937 0.15625 3.04296875 C-5.94544595 3.37497279 -11.49847353 4.52320644 -17.3125 6.3125 C-17.98152344 6.51319092 -18.65054688 6.71388184 -19.33984375 6.9206543 C-23.7480371 8.33718157 -27.36299059 10.12982992 -31 13 C-32.41349769 16.39418221 -32.41349769 16.39418221 -32 20 C-26.84628882 26.66950859 -20.58836224 28.58487838 -12.6875 30.1875 C-11.85154297 30.36474609 -11.01558594 30.54199219 -10.15429688 30.72460938 C-8.10458877 31.15797623 -6.05251318 31.58011932 -4 32 C-4 32.99 -4 33.98 -4 35 C-15.01747658 34.13588419 -27.55169008 31.27381143 -35.0625 22.625 C-36.39327665 18.89882539 -36.13052007 16.7905673 -35 13 C-29.16258177 4.89247468 -18.48719301 2.09757012 -9.00390625 0.28125 C-5.92260639 -0.15121314 -3.09730432 -0.31605146 0 0 Z " fill="#2F294A" transform="translate(80,124)"/>
<path d="M0 0 C0.10957031 0.81984375 0.21914062 1.6396875 0.33203125 2.484375 C0.49058594 3.56203125 0.64914063 4.6396875 0.8125 5.75 C0.96332031 6.81734375 1.11414063 7.8846875 1.26953125 8.984375 C2.01965535 12.08114403 3.00944991 13.57861852 5 16 C5 16.66 5 17.32 5 18 C3.8553125 17.5359375 3.8553125 17.5359375 2.6875 17.0625 C-3.77937814 14.50582725 -9.20229601 14.67361873 -16 16 C-15.71125 15.154375 -15.4225 14.30875 -15.125 13.4375 C-13.90685014 10.00191305 -13.90685014 10.00191305 -13.375 6.3125 C-12 3 -12 3 -10.234375 1.890625 C-6.58889853 0.45943794 -3.97677031 0 0 0 Z " fill="#E1906D" transform="translate(108,18)"/>
<path d="M0 0 C3.29714793 0.32971479 4.6226839 0.6226839 7 3 C9.20018879 9.38733222 10.82650302 15.39648907 9 22 C8.34 22.99 7.68 23.98 7 25 C6.34 25 5.68 25 5 25 C-1.77586207 8.5 -1.77586207 8.5 -2 2 C-1.34 1.34 -0.68 0.68 0 0 Z " fill="#E5906B" transform="translate(40,30)"/>
<path d="M0 0 C5.88666558 2.0186307 8.75021042 5.87911945 12 11 C11.67 11.66 11.34 12.32 11 13 C10.2575 12.319375 9.515 11.63875 8.75 10.9375 C6.29668574 8.81401501 6.29668574 8.81401501 4.0625 9 C1.17882549 10.39814522 -1.38396876 12.15688708 -4 14 C-7.465 8.06 -7.465 8.06 -11 2 C-7.26615028 -0.48923315 -4.32331661 -0.62899081 0 0 Z " fill="#E4936E" transform="translate(125,36)"/>
<path d="M0 0 C0.99 0.66 1.98 1.32 3 2 C2.22914062 2.15726563 1.45828125 2.31453125 0.6640625 2.4765625 C-2.3492476 4.19971637 -2.50006607 4.61871687 -3.4765625 7.7734375 C-3.87993661 9.30201309 -4.26205633 10.83632333 -4.625 12.375 C-7.03047029 22.06189389 -7.03047029 22.06189389 -10 25 C-10.66 25 -11.32 25 -12 25 C-11.649375 24.13375 -11.29875 23.2675 -10.9375 22.375 C-9.90029858 18.64107488 -10.16077922 16.73834711 -11 13 C-11.33859959 10.66742506 -11.6732039 8.33425788 -12 6 C-11.34 6 -10.68 6 -10 6 C-10 4.35 -10 2.7 -10 1 C-3.375 -1.125 -3.375 -1.125 0 0 Z " fill="#272449" transform="translate(59,30)"/>
<path d="M0 0 C0.66 0.33 1.32 0.66 2 1 C0 3 -2 5 -4 7 C-3.67 7.66 -3.34 8.32 -3 9 C-2.960008 10.99960012 -2.95653201 13.00047242 -3 15 C-4.98 15.99 -4.98 15.99 -7 17 C-7 16.34 -7 15.68 -7 15 C-7.62648437 14.80664062 -8.25296875 14.61328125 -8.8984375 14.4140625 C-9.71570313 14.15367187 -10.53296875 13.89328125 -11.375 13.625 C-12.59316406 13.24214844 -12.59316406 13.24214844 -13.8359375 12.8515625 C-16 12 -16 12 -18 10 C-16.68 9.67 -15.36 9.34 -14 9 C-14.33 8.01 -14.66 7.02 -15 6 C-12.54524486 4.96971956 -10.08685649 3.95054496 -7.625 2.9375 C-6.57699219 2.49567383 -6.57699219 2.49567383 -5.5078125 2.04492188 C-3.69495092 1.30408902 -1.84876857 0.64603036 0 0 Z " fill="#2E294B" transform="translate(138,147)"/>
<path d="M0 0 C0.33 0.66 0.66 1.32 1 2 C1.66 2 2.32 2 3 2 C2.69255859 3.57974609 2.69255859 3.57974609 2.37890625 5.19140625 C0.5627496 14.81288594 -0.5868722 24.21314488 -1 34 C-1.99 34 -2.98 34 -4 34 C-4.45818998 22.03615048 -2.96568767 11.60361294 0 0 Z " fill="#312A4B" transform="translate(122,59)"/>
<path d="M0 0 C0.33 0.66 0.66 1.32 1 2 C-0.35256774 4.70214307 -1.7613589 7.31186308 -3.25 9.9375 C-6.84519007 16.46021184 -9.61329616 22.62018531 -11 30 C-11.99 30 -12.98 30 -14 30 C-13.29067808 19.5966119 -7.99317653 9.38341703 -2 1 C-1.34 0.67 -0.68 0.34 0 0 Z " fill="#2B274A" transform="translate(120,56)"/>
<path d="M0 0 C0.33 0 0.66 0 1 0 C1.33972801 2.81185594 1.67190212 5.62428236 2 8.4375 C2.09539062 9.22060547 2.19078125 10.00371094 2.2890625 10.81054688 C2.91511131 16.24375619 3.08759571 21.53074263 3 27 C2.34 27 1.68 27 1 27 C1 31.62 1 36.24 1 41 C0.67 41 0.34 41 0 41 C-0.02505615 40.23445801 -0.0501123 39.46891602 -0.07592773 38.68017578 C-0.19303454 35.16166069 -0.31523405 31.64333945 -0.4375 28.125 C-0.47681641 26.92101562 -0.51613281 25.71703125 -0.55664062 24.4765625 C-0.79903523 17.61493058 -1.19747447 10.81999001 -2 4 C-1.34 4 -0.68 4 0 4 C0 2.68 0 1.36 0 0 Z " fill="#3A304D" transform="translate(134,59)"/>
<path d="M0 0 C0.99 2.31 1.98 4.62 3 7 C-2.94 6.67 -8.88 6.34 -15 6 C-10.71301536 1.71301536 -6.15066273 -0.55915116 0 0 Z " fill="#DE8E6C" transform="translate(104,117)"/>
<path d="M0 0 C2.97 0.33 5.94 0.66 9 1 C9 1.33 9 1.66 9 2 C6.69 2 4.38 2 2 2 C2.06960937 3.02480469 2.13921875 4.04960937 2.2109375 5.10546875 C2.72442411 15.84092142 2.72442411 15.84092142 0.76953125 18.96875 C-0.8125 20.1875 -0.8125 20.1875 -4 22 C-5.00573778 23.32901064 -6.00795408 24.66073801 -7 26 C-7.66 26 -8.32 26 -9 26 C-7.46457536 21.52167812 -5.39145948 17.19572974 -1 15 C-0.68758629 12.45058627 -0.48696579 9.99638487 -0.375 7.4375 C-0.31699219 6.37112305 -0.31699219 6.37112305 -0.2578125 5.28320312 C-0.16328217 3.52257575 -0.08054183 1.76132272 0 0 Z " fill="#1F2048" transform="translate(157,20)"/>
<path d="M0 0 C0 0.66 0 1.32 0 2 C-0.66 2.66 -1.32 3.32 -2 4 C2.455 5.98 2.455 5.98 7 8 C7 8.66 7 9.32 7 10 C-1.20533881 8.48049281 -1.20533881 8.48049281 -4.6875 6.375 C-7.60158036 4.64230357 -9.6689337 4.76760003 -13 5 C-13.33 4.01 -13.66 3.02 -14 2 C-12.4176994 1.66179834 -10.83410625 1.32964061 -9.25 1 C-8.36828125 0.814375 -7.4865625 0.62875 -6.578125 0.4375 C-4 0 -4 0 0 0 Z " fill="#2A274A" transform="translate(124,154)"/>
<path d="M0 0 C2.4375 2 2.4375 2 4 4 C-0.51961078 6.25980539 -4.04254494 6.31983581 -9 6 C-9.99 5.34 -10.98 4.68 -12 4 C-12 3.34 -12 2.68 -12 2 C-7.87758672 0.00125417 -4.56422451 -0.4979154 0 0 Z " fill="#DC8D6B" transform="translate(92,140)"/>
<path d="M0 0 C5.42372756 -0.56497162 8.55661457 0.29365778 13.0703125 3.3671875 C17.14381292 6.81399555 20.3111377 10.93341309 22 16 C20.68 16.33 19.36 16.66 18 17 C17.896875 16.443125 17.79375 15.88625 17.6875 15.3125 C16.36936509 10.87877348 14.59189075 8.13013445 10.625 5.75 C8.36390014 4.55013517 6.7340567 3.94681134 4.1875 3.4375 C2 3 2 3 0 0 Z " fill="#2D284B" transform="translate(118,33)"/>
<path d="M0 0 C0.99 0.33 1.98 0.66 3 1 C6.75886145 9.07459127 6.71098965 16.69759421 4 25 C3.01 25 2.02 25 1 25 C1.16113281 24.47277344 1.32226562 23.94554688 1.48828125 23.40234375 C2.12419237 20.4169595 2.16985929 17.61434327 2.1875 14.5625 C2.20167969 13.45003906 2.21585938 12.33757812 2.23046875 11.19140625 C2.00083165 8.0115163 1.25660816 5.89566227 0 3 C0 2.01 0 1.02 0 0 Z " fill="#2B274A" transform="translate(158,74)"/>
<path d="M0 0 C3.23530689 1.04568487 3.98656926 1.97574918 5.66796875 5.01171875 C6.16941406 6.22472656 6.67085937 7.43773438 7.1875 8.6875 C7.95126953 10.48767578 7.95126953 10.48767578 8.73046875 12.32421875 C10.00282374 16.00817582 10.58966922 19.14882319 11 23 C10.01 23.33 9.02 23.66 8 24 C7.84144531 23.33355469 7.68289062 22.66710937 7.51953125 21.98046875 C5.92989613 15.7009709 3.82150511 10.04008573 0.98828125 4.21484375 C0 2 0 2 0 0 Z " fill="#28254A" transform="translate(142,63)"/>
<path d="M0 0 C0.66 0.99 1.32 1.98 2 3 C1.34515625 3.03738281 0.6903125 3.07476562 0.015625 3.11328125 C-7.24350244 3.6361845 -13.99421571 5.05598656 -21 7 C-21.33 6.01 -21.66 5.02 -22 4 C-19.64856824 3.32210976 -17.29461376 2.65759253 -14.9375 2 C-13.95233398 1.71382813 -13.95233398 1.71382813 -12.94726562 1.421875 C-8.55828295 0.21112116 -4.59178043 -0.45860479 0 0 Z " fill="#3C304D" transform="translate(80,124)"/>
<path d="M0 0 C0 0.66 0 1.32 0 2 C-4.95 4.475 -4.95 4.475 -10 7 C-7.03 7.495 -7.03 7.495 -4 8 C-7.52679099 10.35119399 -9.02879485 10.21443452 -13.1875 10.125 C-14.27417969 10.10695313 -15.36085938 10.08890625 -16.48046875 10.0703125 C-17.72763672 10.03550781 -17.72763672 10.03550781 -19 10 C-17.59913056 7.19826112 -15.87554282 7.13041425 -13 6 C-10.67070809 4.48379987 -8.43403175 2.87248748 -6.18359375 1.2421875 C-4 0 -4 0 0 0 Z " fill="#1E2048" transform="translate(98,116)"/>
<path d="M0 0 C3.3 0 6.6 0 10 0 C10 2.64 10 5.28 10 8 C9.01 8.495 9.01 8.495 8 9 C6.66079162 7.88200014 5.32877444 6.75538103 4 5.625 C2.88625 4.68527344 2.88625 4.68527344 1.75 3.7265625 C1.1725 3.15679687 0.595 2.58703125 0 2 C0 1.34 0 0.68 0 0 Z " fill="#312B4B" transform="translate(80,160)"/>
<path d="M0 0 C0.886875 0.4125 1.77375 0.825 2.6875 1.25 C1.69052665 3.87247338 1.14902265 5.01923868 -1.40625 6.296875 C-2.2003125 6.52890625 -2.994375 6.7609375 -3.8125 7 C-4.6065625 7.24234375 -5.400625 7.4846875 -6.21875 7.734375 C-8.3125 8.25 -8.3125 8.25 -10.3125 8.25 C-8.66062262 2.84385586 -6.09805426 -1.38069153 0 0 Z " fill="#312A4B" transform="translate(50.3125,84.75)"/>
<path d="M0 0 C0.33 2.31 0.66 4.62 1 7 C-3.87664009 7.34833144 -6.77050005 6.41685712 -11 4 C-7.63661956 0.63661956 -4.71164284 0 0 0 Z " fill="#D98D6C" transform="translate(131,154)"/>
<path d="M0 0 C0.33 0 0.66 0 1 0 C1.19335938 0.92941406 1.38671875 1.85882813 1.5859375 2.81640625 C3.51230285 11.97979915 3.51230285 11.97979915 6 21 C5.01 21 4.02 21 3 21 C0.35623059 14.99925826 -1.76842702 9.59982991 -2 3 C-1.34 2.01 -0.68 1.02 0 0 Z " fill="#2D284A" transform="translate(20,69)"/>
<path d="M0 0 C2.4375 0.1875 2.4375 0.1875 3.4375 1.1875 C3.625 3.625 3.625 3.625 3.4375 6.1875 C2.7775 6.8475 2.1175 7.5075 1.4375 8.1875 C-1.1875 7.8125 -1.1875 7.8125 -3.5625 7.1875 C-4.1875 4.8125 -4.1875 4.8125 -4.5625 2.1875 C-2.5625 0.1875 -2.5625 0.1875 0 0 Z " fill="#3F324D" transform="translate(66.5625,134.8125)"/>
<path d="M0 0 C2.97 0 5.94 0 9 0 C9 1.98 9 3.96 9 6 C6.03 6 3.06 6 0 6 C0 4.02 0 2.04 0 0 Z " fill="#EB9872" transform="translate(159,14)"/>
<path d="M0 0 C5.66666667 0 11.33333333 0 17 0 C17 0.66 17 1.32 17 2 C15.02 2.33 13.04 2.66 11 3 C10.67 4.65 10.34 6.3 10 8 C9.34 8 8.68 8 8 8 C7.566875 7.175 7.13375 6.35 6.6875 5.5 C6.130625 4.675 5.57375 3.85 5 3 C2.37305578 2.58219121 2.37305578 2.58219121 0 3 C0 2.01 0 1.02 0 0 Z " fill="#1D1F47" transform="translate(39,28)"/>
<path d="M0 0 C0.66 0.33 1.32 0.66 2 1 C0.68195158 3.3431972 -0.65220239 5.67396219 -2 8 C-2.42023438 8.74121094 -2.84046875 9.48242188 -3.2734375 10.24609375 C-3.69882813 10.96925781 -4.12421875 11.69242188 -4.5625 12.4375 C-4.95566406 13.11683594 -5.34882812 13.79617187 -5.75390625 14.49609375 C-6.16511719 14.99238281 -6.57632813 15.48867187 -7 16 C-7.99 16 -8.98 16 -10 16 C-8.69091868 12.44408198 -7.12739559 9.44509001 -5 6.3125 C-4.2265625 5.16201172 -4.2265625 5.16201172 -3.4375 3.98828125 C-2 2 -2 2 0 0 Z " fill="#2B274A" transform="translate(108,60)"/>
<path d="M0 0 C0.99 0 1.98 0 3 0 C3.6509259 1.24735567 4.29551669 2.49801832 4.9375 3.75 C5.29714844 4.44609375 5.65679687 5.1421875 6.02734375 5.859375 C6.95558182 7.90224433 7.53166578 9.81115376 8 12 C7.21625 11.484375 6.4325 10.96875 5.625 10.4375 C4.75875 9.963125 3.8925 9.48875 3 9 C2.01 9.495 2.01 9.495 1 10 C1 8.35 1 6.7 1 5 C0.34 5 -0.32 5 -1 5 C-0.67 3.35 -0.34 1.7 0 0 Z " fill="#2F294A" transform="translate(47,64)"/>
<path d="M0 0 C0.33 0.66 0.66 1.32 1 2 C1.66 2 2.32 2 3 2 C2.01 7.61 1.02 13.22 0 19 C-0.99 18.01 -1.98 17.02 -3 16 C-2.67541404 10.59023408 -1.23166504 5.27343962 0 0 Z " fill="#3D324E" transform="translate(122,59)"/>
<path d="M0 0 C1.65 0 3.3 0 5 0 C4.01 3.96 3.02 7.92 2 12 C-0.37555161 9.62444839 -0.36834858 8.69703006 -0.6875 5.4375 C-0.77386719 4.63183594 -0.86023437 3.82617188 -0.94921875 2.99609375 C-0.96597656 2.33738281 -0.98273437 1.67867187 -1 1 C-0.67 0.67 -0.34 0.34 0 0 Z " fill="#D78968" transform="translate(50,30)"/>
<path d="M0 0 C0.66 2.31 1.32 4.62 2 7 C0.68 6.67 -0.64 6.34 -2 6 C-2 5.01 -2 4.02 -2 3 C-3.98 3.33 -5.96 3.66 -8 4 C-8 3.34 -8 2.68 -8 2 C-8.66 1.67 -9.32 1.34 -10 1 C-6.61981469 -0.04005702 -3.5219721 -0.08004482 0 0 Z " fill="#3C314D" transform="translate(106,114)"/>
<path d="M0 0 C3 1 3 1 3.9375 2.75 C4.288125 3.4925 4.63875 4.235 5 5 C6.3050581 6.68889872 7.63360658 8.3603279 9 10 C5.78147169 9.36934243 3.49198931 8.21979305 0.75 6.4375 C0.04359375 5.98246094 -0.6628125 5.52742187 -1.390625 5.05859375 C-2.18726563 4.53458984 -2.18726563 4.53458984 -3 4 C-2.67 3.01 -2.34 2.02 -2 1 C-1.34 0.67 -0.68 0.34 0 0 Z " fill="#242349" transform="translate(161,139)"/>
<path d="M0 0 C0.66 0 1.32 0 2 0 C2 6.27 2 12.54 2 19 C1.01 18.67 0.02 18.34 -1 18 C-1.02707139 15.75006641 -1.04642829 13.50003905 -1.0625 11.25 C-1.07410156 9.99703125 -1.08570312 8.7440625 -1.09765625 7.453125 C-1.02021027 4.71463499 -0.82780815 2.58119707 0 0 Z " fill="#191C46" transform="translate(30,41)"/>
<path d="M0 0 C0.33 0.99 0.66 1.98 1 3 C-0.109375 4.97265625 -0.109375 4.97265625 -1.75 7.0625 C-2.28109375 7.75472656 -2.8121875 8.44695312 -3.359375 9.16015625 C-5 11 -5 11 -8 13 C-8 9 -8 9 -6.0625 6.9375 C-5.381875 6.298125 -4.70125 5.65875 -4 5 C-3.67 4.01 -3.34 3.02 -3 2 C-2.01 1.34 -1.02 0.68 0 0 Z " fill="#382F4D" transform="translate(172,128)"/>
<path d="M0 0 C0.99 0 1.98 0 3 0 C3.66 4.29 4.32 8.58 5 13 C4.01 13 3.02 13 2 13 C0.54815522 8.46298506 -0.23509196 4.81938524 0 0 Z " fill="#342C4C" transform="translate(105,93)"/>
<path d="M0 0 C5.71658336 -0.45732667 8.48649253 0.47726246 13 4 C12.34 5.32 11.68 6.64 11 8 C9.9790625 6.7934375 9.9790625 6.7934375 8.9375 5.5625 C5.51522698 2.57711289 3.4571874 2.26218749 -1 2 C-0.67 1.34 -0.34 0.68 0 0 Z " fill="#202148" transform="translate(86,138)"/>
<path d="M0 0 C2.02350324 3.03525486 2.32124018 4.19426202 2.625 7.6875 C2.69976562 8.49574219 2.77453125 9.30398437 2.8515625 10.13671875 C2.92503906 11.05904297 2.92503906 11.05904297 3 12 C1.35 12 -0.3 12 -2 12 C-1.34 8.04 -0.68 4.08 0 0 Z " fill="#191D46" transform="translate(96,87)"/>
<path d="M0 0 C0.33 1.32 0.66 2.64 1 4 C2.98 4 4.96 4 7 4 C7.33 4.66 7.66 5.32 8 6 C4.04 6 0.08 6 -4 6 C-2.68 4.02 -1.36 2.04 0 0 Z " fill="#191C46" transform="translate(62,50)"/>
<path d="M0 0 C0.99 0.33 1.98 0.66 3 1 C2.07544441 2.508013 1.1349253 4.00624917 0.1875 5.5 C-0.33457031 6.3353125 -0.85664063 7.170625 -1.39453125 8.03125 C-1.92433594 8.6809375 -2.45414063 9.330625 -3 10 C-3.99 10 -4.98 10 -6 10 C-4.6302836 6.00499382 -2.74277578 3.19990508 0 0 Z " fill="#322B4C" transform="translate(154,36)"/>
<path d="M0 0 C1.37478516 0.01740234 1.37478516 0.01740234 2.77734375 0.03515625 C3.69644531 0.04417969 4.61554688 0.05320312 5.5625 0.0625 C6.27277344 0.07410156 6.98304687 0.08570312 7.71484375 0.09765625 C4.70596594 1.67924587 2.07812338 2.53710964 -1.28515625 3.09765625 C-1.61515625 4.74765625 -1.94515625 6.39765625 -2.28515625 8.09765625 C-2.61515625 8.09765625 -2.94515625 8.09765625 -3.28515625 8.09765625 C-3.32757348 5.7647085 -3.32608562 3.43063058 -3.28515625 1.09765625 C-2.28515625 0.09765625 -2.28515625 0.09765625 0 0 Z " fill="#262449" transform="translate(69.28515625,88.90234375)"/>
<path d="M0 0 C0.33 0.66 0.66 1.32 1 2 C1.66 2 2.32 2 3 2 C2.67 5.3 2.34 8.6 2 12 C1.01 11.67 0.02 11.34 -1 11 C-0.67 7.37 -0.34 3.74 0 0 Z " fill="#3D314D" transform="translate(19,45)"/>
<path d="M0 0 C0.33 0 0.66 0 1 0 C1.33 3.96 1.66 7.92 2 12 C1.01 12.66 0.02 13.32 -1 14 C-1.33 10.7 -1.66 7.4 -2 4 C-1.34 4 -0.68 4 0 4 C0 2.68 0 1.36 0 0 Z " fill="#493850" transform="translate(134,59)"/>
<path d="M0 0 C2.35694954 0.09031574 4.71153582 0.24688128 7.0625 0.4375 C8.35285156 0.53933594 9.64320312 0.64117187 10.97265625 0.74609375 C12.47119141 0.87177734 12.47119141 0.87177734 14 1 C12.68 1.33 11.36 1.66 10 2 C10 2.66 10 3.32 10 4 C3.6 4.36923077 3.6 4.36923077 0.5625 2.5 C0.046875 2.005 -0.46875 1.51 -1 1 C-0.67 0.67 -0.34 0.34 0 0 Z " fill="#40334E" transform="translate(88,122)"/>
<path d="M0 0 C0.721875 0.12375 1.44375 0.2475 2.1875 0.375 C1.6875 2.25 1.6875 2.25 0.1875 4.375 C-2.46427645 5.35994554 -5.01797307 5.83412382 -7.8125 6.375 C-3.50480769 0.46730769 -3.50480769 0.46730769 0 0 Z " fill="#DA8A69" transform="translate(50.8125,85.625)"/>
<path d="M0 0 C0.99 0 1.98 0 3 0 C4.32 2.64 5.64 5.28 7 8 C6.01 8 5.02 8 4 8 C3.67 8.66 3.34 9.32 3 10 C2.01 6.7 1.02 3.4 0 0 Z " fill="#362D4C" transform="translate(115,43)"/>
<path d="M0 0 C3 1 3 1 6 3 C5.21625 3.2475 4.4325 3.495 3.625 3.75 C0.67682892 5.15389099 0.0975223 6.00675737 -1 9 C-2.1875 7.3125 -2.1875 7.3125 -3 5 C-1.625 2.25 -1.625 2.25 0 0 Z " fill="#3C314D" transform="translate(56,29)"/>
<path d="M0 0 C1.98 0 3.96 0 6 0 C6 1.98 6 3.96 6 6 C3.37812506 4.95125002 2.20628639 4.35068687 0.75 1.875 C0.5025 1.25625 0.255 0.6375 0 0 Z " fill="#DD8D6B" transform="translate(83,160)"/>
<path d="M0 0 C5 2 5 2 10 4 C10 4.66 10 5.32 10 6 C5.6109185 5.48964169 2.66291938 4.47785723 -1 2 C-0.67 1.34 -0.34 0.68 0 0 Z " fill="#262449" transform="translate(51,149)"/>
<path d="M0 0 C0 0.66 0 1.32 0 2 C-2.97 3.32 -5.94 4.64 -9 6 C-8 2 -8 2 -6.1875 0.75 C-4 0 -4 0 0 0 Z " fill="#29264A" transform="translate(98,116)"/>
<path d="M0 0 C0.66 0.99 1.32 1.98 2 3 C-1.63 3.33 -5.26 3.66 -9 4 C-9 3.34 -9 2.68 -9 2 C-5.89782379 0.16167336 -3.60591321 -0.47446226 0 0 Z " fill="#3C304D" transform="translate(59,54)"/>
<path d="M0 0 C0.33 0.66 0.66 1.32 1 2 C1.66 2 2.32 2 3 2 C3.33 1.34 3.66 0.68 4 0 C5.5625 1.8125 5.5625 1.8125 7 4 C6.67 4.99 6.34 5.98 6 7 C4.68 6.01 3.36 5.02 2 4 C1.01 4.495 1.01 4.495 0 5 C0 3.35 0 1.7 0 0 Z " fill="#4B394F" transform="translate(48,69)"/>
<path d="M0 0 C0.33 0.66 0.66 1.32 1 2 C-0.8125 4.5 -0.8125 4.5 -3 7 C-3.99 7 -4.98 7 -6 7 C-4.60667426 3.63279613 -3.0210714 2.0140476 0 0 Z " fill="#28264A" transform="translate(158,102)"/>
<path d="M0 0 C0.99 0.33 1.98 0.66 3 1 C3.33 3.31 3.66 5.62 4 8 C3.01 8.33 2.02 8.66 1 9 C0.67 6.03 0.34 3.06 0 0 Z " fill="#322B4C" transform="translate(149,78)"/>
<path d="M0 0 C0.33 0 0.66 0 1 0 C1 1.98 1 3.96 1 6 C-0.98 6.99 -0.98 6.99 -3 8 C-3 7.34 -3 6.68 -3 6 C-3.66 5.67 -4.32 5.34 -5 5 C-4.01 5 -3.02 5 -2 5 C-1.67 4.01 -1.34 3.02 -1 2 C-0.67 1.34 -0.34 0.68 0 0 Z " fill="#44364F" transform="translate(134,156)"/>
<path d="M0 0 C0.33 0 0.66 0 1 0 C1.33 2.97 1.66 5.94 2 9 C1.34 9 0.68 9 0 9 C-0.33 9.66 -0.66 10.32 -1 11 C-2.25 3.375 -2.25 3.375 0 0 Z " fill="#372E4B" transform="translate(20,69)"/>
<path d="M0 0 C1.32 0.33 2.64 0.66 4 1 C2.35 2.65 0.7 4.3 -1 6 C-1 2 -1 2 0 0 Z " fill="#392F4D" transform="translate(77,146)"/>
<path d="M0 0 C6.75 -0.125 6.75 -0.125 9 1 C9 1.66 9 2.32 9 3 C5.625 3.1875 5.625 3.1875 2 3 C1.34 2.01 0.68 1.02 0 0 Z " fill="#3F334E" transform="translate(118,33)"/>
<path d="M0 0 C6.75 -0.125 6.75 -0.125 9 1 C9 1.66 9 2.32 9 3 C5.625 3.1875 5.625 3.1875 2 3 C1.34 2.01 0.68 1.02 0 0 Z " fill="#3D314D" transform="translate(77,33)"/>
<path d="M0 0 C1.32 0.33 2.64 0.66 4 1 C4 1.66 4 2.32 4 3 C4.99 3.33 5.98 3.66 7 4 C4.03 3.67 1.06 3.34 -2 3 C-1.34 2.67 -0.68 2.34 0 2 C0 1.34 0 0.68 0 0 Z " fill="#42354F" transform="translate(166,155)"/>
<path d="M0 0 C1.65 0.33 3.3 0.66 5 1 C5 1.99 5 2.98 5 4 C2.69 3.67 0.38 3.34 -2 3 C-1.34 2.01 -0.68 1.02 0 0 Z " fill="#41344E" transform="translate(69,54)"/>
<path d="M0 0 C0.66 0 1.32 0 2 0 C2.33 2.64 2.66 5.28 3 8 C2.34 8 1.68 8 1 8 C0.67 5.36 0.34 2.72 0 0 Z " fill="#1A1D47" transform="translate(37,35)"/>
</svg>
