<?xml version="1.0" standalone="no"?>
<!DOCTYPE svg PUBLIC "-//W3C//DTD SVG 20010904//EN"
 "http://www.w3.org/TR/2001/REC-SVG-20010904/DTD/svg10.dtd">
<svg version="1.0" xmlns="http://www.w3.org/2000/svg"
 width="205.000000pt" height="178.000000pt" viewBox="0 0 205.000000 178.000000"
 preserveAspectRatio="xMidYMid meet">
<metadata>
Created by potrace 1.10, written by Peter Selinger 2001-2011
</metadata>
<g transform="translate(0.000000,178.000000) scale(0.100000,-0.100000)"
fill="#000000" stroke="none">
<path d="M1567 1664 c-4 -4 -7 -61 -7 -126 0 -68 -4 -118 -9 -118 -6 0 -23
-16 -38 -37 -23 -30 -29 -49 -33 -111 l-5 -74 -27 21 c-15 12 -38 45 -51 74
-49 107 -120 160 -205 155 -47 -3 -47 -3 -70 42 -18 34 -22 57 -19 92 2 26 2
49 0 52 -2 2 -38 -7 -80 -19 l-76 -22 -19 -59 c-10 -32 -27 -69 -37 -81 -16
-20 -22 -21 -54 -11 -35 11 -59 5 -139 -30 -5 -2 -8 3 -8 11 0 24 -58 67 -90
67 -16 0 -40 5 -54 11 -20 9 -30 9 -48 -3 -21 -14 -26 -14 -46 0 -21 14 -26
14 -55 0 -18 -9 -46 -13 -65 -11 -97 15 -158 -134 -150 -367 5 -140 24 -203
83 -287 19 -27 45 -69 59 -94 14 -25 50 -69 81 -97 44 -41 72 -56 127 -73 63
-19 80 -21 140 -11 125 19 225 89 273 194 l23 50 21 -40 c24 -47 84 -94 161
-124 42 -17 77 -22 151 -22 91 -1 99 1 172 37 48 24 87 51 103 72 26 34 28 35
80 29 59 -7 109 7 124 37 6 10 10 129 10 274 0 246 -1 259 -22 296 -12 22 -32
46 -45 55 -23 14 -23 19 -21 132 l3 117 -65 3 c-36 2 -69 0 -73 -4z m113 -54
c0 -29 -2 -30 -45 -30 -43 0 -45 1 -45 30 0 29 2 30 45 30 43 0 45 -1 45 -30z
m-603 -22 c-8 -33 8 -96 33 -130 12 -16 20 -31 18 -34 -3 -2 -22 5 -43 16 -49
25 -100 25 -147 1 l-37 -18 30 52 c16 28 29 61 29 73 0 16 12 25 58 40 31 11
59 20 61 21 2 0 1 -9 -2 -21z m603 -105 c0 -65 1 -69 34 -95 23 -18 37 -41 45
-72 22 -90 29 -86 -124 -86 l-135 0 0 35 c0 49 22 96 59 127 29 25 31 31 31
92 l0 66 45 0 45 0 0 -67z m-1226 -25 c7 -13 21 -55 31 -95 16 -69 16 -73 -1
-102 -10 -17 -21 -31 -25 -31 -22 0 -84 217 -67 238 16 19 46 14 62 -10z m96
20 c-1 -2 -9 -32 -19 -68 l-18 -65 -12 57 c-7 32 -10 62 -6 68 5 8 56 15 55 8z
m-210 -18 c11 -6 24 -35 35 -82 10 -40 30 -97 46 -126 l28 -53 -52 -50 c-59
-56 -60 -55 -78 44 -9 51 -10 82 -2 120 12 57 0 87 -17 43 -17 -46 -12 -170 9
-232 19 -51 19 -57 4 -92 -9 -20 -19 -73 -22 -116 l-6 -80 -26 55 c-39 79 -53
152 -53 264 0 146 33 262 86 299 27 19 24 19 48 6z m294 -11 c45 -36 50 -55
23 -92 -13 -17 -31 -50 -39 -71 -13 -34 -21 -41 -59 -51 -24 -7 -52 -15 -61
-20 -15 -6 -14 0 6 36 13 24 31 76 40 114 16 64 38 105 56 105 4 0 19 -9 34
-21z m436 -29 c41 -21 64 -48 99 -119 22 -41 22 -44 4 -56 -96 -68 -179 -163
-190 -217 -8 -43 -19 -42 -32 4 -8 27 -34 63 -75 105 l-63 64 16 47 c35 102
84 163 150 182 40 13 49 11 91 -10z m-210 -10 c17 -9 17 -13 -16 -67 -18 -31
-37 -71 -40 -90 -8 -43 -12 -45 -60 -28 -21 8 -56 14 -77 15 -35 0 -38 2 -32
23 18 59 74 126 125 149 23 10 79 9 100 -2z m436 -19 c29 -23 84 -98 84 -116
0 -5 -17 8 -38 28 -21 20 -42 37 -48 37 -6 0 -27 -15 -47 -34 l-38 -34 -14 35
c-8 19 -24 47 -35 63 -19 27 -20 29 -3 40 28 17 107 6 139 -19z m29 -271 c16
-107 21 -337 9 -429 -5 -40 -10 -51 -25 -51 -20 0 -65 69 -80 125 -6 19 -14
35 -19 35 -19 0 -10 -45 20 -104 l30 -58 -38 7 c-96 18 -124 48 -138 147 -8
63 -13 73 -25 61 -10 -10 -1 -90 17 -138 5 -15 -3 -11 -29 14 -107 101 -84
284 54 422 86 86 108 93 60 20 -43 -67 -90 -176 -93 -219 -5 -45 16 -36 28 13
7 25 28 79 47 119 36 76 114 197 103 161 -52 -183 -57 -206 -59 -299 -1 -72 1
-100 11 -103 9 -4 12 16 12 76 0 84 16 177 52 295 34 114 30 119 63 -94z m86
33 c71 -125 92 -194 93 -303 1 -129 -17 -167 -92 -194 -29 -10 -54 -17 -56
-15 -2 2 1 31 6 64 19 115 -2 428 -37 559 -10 34 36 -25 86 -111z m78 -3 c136
-137 159 -322 54 -421 -26 -25 -34 -29 -29 -14 48 134 11 316 -97 473 -26 40
-27 43 -7 32 12 -6 48 -38 79 -70z m-731 40 c67 -29 150 -117 175 -186 28 -79
23 -169 -14 -242 -99 -199 -357 -244 -512 -89 -91 91 -119 239 -68 355 33 72
121 154 192 175 70 21 159 16 227 -13z m1010 -175 c3 -233 2 -235 -94 -235
-64 0 -65 0 -53 22 7 13 12 55 12 94 0 58 -5 83 -30 136 -17 36 -47 83 -67
105 -59 65 -55 68 96 67 l133 -2 3 -187z"/>
<path d="M465 1096 c-8 -53 8 -110 37 -130 19 -13 18 -14 -16 -26 -19 -6 -46
-24 -60 -40 -24 -29 -43 -86 -33 -97 3 -2 23 7 44 21 45 31 53 32 46 8 -3 -14
4 -21 31 -29 34 -10 37 -10 50 14 l13 26 7 -27 c8 -32 73 -106 93 -106 11 0
13 7 7 33 -8 36 -7 107 2 116 3 3 37 6 75 5 80 -1 85 7 38 61 -22 24 -43 37
-69 41 l-38 6 19 44 c14 31 18 54 13 83 -4 23 -10 41 -15 41 -4 0 -31 -25 -60
-55 -28 -30 -58 -55 -65 -55 -23 0 -72 50 -79 80 -10 45 -33 37 -40 -14z m224
-68 c-7 -21 -18 -43 -26 -49 -25 -22 -15 -38 20 -32 36 5 83 -13 108 -43 12
-15 11 -16 -18 -10 -17 4 -49 2 -71 -3 -43 -12 -51 -27 -52 -96 l0 -40 -20 25
c-28 37 -36 81 -16 92 20 11 21 28 2 28 -8 0 -29 -17 -48 -39 -18 -21 -39 -36
-45 -34 -21 7 -15 21 27 67 l40 44 -35 20 c-40 24 -75 76 -75 112 0 25 1 24
21 -7 11 -17 36 -39 55 -48 l35 -16 45 37 c25 20 49 44 52 53 13 33 14 -21 1
-61z m-158 -122 c-13 -13 -35 -27 -49 -31 -15 -4 -35 -14 -44 -22 -10 -9 -18
-12 -18 -7 0 15 63 72 85 77 44 10 49 7 26 -17z"/>
<path d="M962 621 c-29 -10 -70 -32 -92 -50 -24 -19 -50 -31 -69 -31 -94 0
-267 -57 -320 -105 -63 -58 -43 -133 48 -179 48 -25 192 -66 229 -66 11 0 48
-27 81 -60 34 -33 66 -58 72 -55 5 4 9 28 9 56 l0 49 69 0 c37 0 92 4 120 10
47 9 57 7 100 -16 112 -58 165 -34 127 57 -6 13 7 24 62 51 l70 33 39 -34 c45
-39 121 -76 181 -86 39 -6 42 -5 42 16 0 38 -38 103 -75 128 l-35 23 33 22
c38 26 77 90 77 129 0 22 -4 27 -17 23 -10 -3 -38 -10 -63 -16 -51 -13 -138
-60 -164 -89 -17 -19 -19 -18 -102 21 -47 22 -129 50 -182 64 -102 26 -128 44
-134 94 -4 33 -36 36 -106 11z m90 -44 l16 -32 -99 0 c-54 0 -99 1 -99 2 0 5
85 46 110 54 45 13 56 10 72 -24z m101 -77 c105 -25 178 -50 245 -84 44 -23
51 -30 42 -42 -9 -10 -10 -17 -1 -28 9 -11 -4 -20 -71 -49 -170 -71 -259 -90
-433 -90 -416 -1 -625 173 -323 268 113 36 163 42 320 44 105 1 156 -4 221
-19z m546 -20 c-12 -33 -81 -100 -104 -100 -26 0 -16 -27 15 -40 52 -22 118
-120 80 -120 -35 0 -127 48 -175 92 l-56 51 33 34 c42 43 84 69 150 93 69 25
69 25 57 -10z m-383 -306 c-4 -11 -12 -11 -46 1 -75 27 -77 30 -18 51 l53 20
8 -29 c5 -16 6 -36 3 -43z m-416 -29 c0 -31 -2 -34 -17 -26 -10 5 -29 21 -42
35 l-24 26 41 0 c41 0 42 -1 42 -35z"/>
<path d="M648 433 c-23 -6 -34 -49 -18 -68 26 -31 70 -11 70 32 0 25 -25 42
-52 36z"/>
<path d="M755 430 c-3 -5 1 -20 9 -32 9 -12 16 -34 16 -48 0 -14 -7 -36 -16
-48 -18 -26 -10 -49 12 -31 8 6 14 18 14 26 0 11 7 13 26 9 71 -18 84 -18 129
4 54 26 56 45 7 73 -36 21 -99 25 -131 7 -17 -9 -22 -6 -36 20 -17 33 -21 35
-30 20z m191 -71 c14 -11 13 -14 -8 -25 -31 -18 -98 -17 -122 1 -22 17 -21 20
14 34 31 13 95 7 116 -10z"/>
</g>
</svg>
